<mxfile host="app.diagrams.net" agent="Mozilla/5.0 (X11; Linux x86_64; rv:136.0) Gecko/20100101 Firefox/136.0" version="26.2.4">
  <diagram id="C5RBs43oDa-KdzZeNtuy" name="Page-1">
    <mxGraphModel dx="2088" dy="1170" grid="1" gridSize="10" guides="1" tooltips="1" connect="1" arrows="1" fold="1" page="1" pageScale="1" pageWidth="827" pageHeight="1169" math="0" shadow="0">
      <root>
        <mxCell id="WIyWlLk6GJQsqaUBKTNV-0" />
        <mxCell id="WIyWlLk6GJQsqaUBKTNV-1" parent="WIyWlLk6GJQsqaUBKTNV-0" />
        <mxCell id="zvktCbyHtQD9FBszKxyi-12" style="edgeStyle=orthogonalEdgeStyle;rounded=0;orthogonalLoop=1;jettySize=auto;html=1;exitX=0.5;exitY=0.5;exitDx=0;exitDy=15.000000000000002;exitPerimeter=0;entryX=0.5;entryY=0;entryDx=0;entryDy=0;" edge="1" parent="WIyWlLk6GJQsqaUBKTNV-1" source="zvktCbyHtQD9FBszKxyi-3" target="zvktCbyHtQD9FBszKxyi-11">
          <mxGeometry relative="1" as="geometry" />
        </mxCell>
        <mxCell id="zvktCbyHtQD9FBszKxyi-3" value="Início" style="html=1;dashed=0;whiteSpace=wrap;shape=mxgraph.dfd.start" vertex="1" parent="WIyWlLk6GJQsqaUBKTNV-1">
          <mxGeometry x="278" y="40" width="80" height="30" as="geometry" />
        </mxCell>
        <mxCell id="zvktCbyHtQD9FBszKxyi-13" style="edgeStyle=orthogonalEdgeStyle;rounded=0;orthogonalLoop=1;jettySize=auto;html=1;exitX=0.5;exitY=1;exitDx=0;exitDy=0;entryX=0.5;entryY=0;entryDx=0;entryDy=0;" edge="1" parent="WIyWlLk6GJQsqaUBKTNV-1" source="zvktCbyHtQD9FBszKxyi-11" target="zvktCbyHtQD9FBszKxyi-4">
          <mxGeometry relative="1" as="geometry" />
        </mxCell>
        <mxCell id="zvktCbyHtQD9FBszKxyi-11" value="Mostra o display completamente limpo" style="html=1;dashed=0;whiteSpace=wrap;" vertex="1" parent="WIyWlLk6GJQsqaUBKTNV-1">
          <mxGeometry x="253" y="100" width="130" height="50" as="geometry" />
        </mxCell>
        <mxCell id="zvktCbyHtQD9FBszKxyi-8" style="edgeStyle=orthogonalEdgeStyle;rounded=0;orthogonalLoop=1;jettySize=auto;html=1;exitX=0;exitY=0.5;exitDx=0;exitDy=0;entryX=0;entryY=0.5;entryDx=0;entryDy=0;" edge="1" parent="WIyWlLk6GJQsqaUBKTNV-1" source="zvktCbyHtQD9FBszKxyi-5" target="zvktCbyHtQD9FBszKxyi-11">
          <mxGeometry relative="1" as="geometry">
            <mxPoint x="218" y="220" as="targetPoint" />
            <Array as="points">
              <mxPoint x="218" y="295" />
              <mxPoint x="218" y="125" />
            </Array>
          </mxGeometry>
        </mxCell>
        <mxCell id="zvktCbyHtQD9FBszKxyi-22" style="edgeStyle=orthogonalEdgeStyle;rounded=0;orthogonalLoop=1;jettySize=auto;html=1;exitX=0.5;exitY=1;exitDx=0;exitDy=0;entryX=0.5;entryY=0;entryDx=0;entryDy=0;" edge="1" parent="WIyWlLk6GJQsqaUBKTNV-1" source="zvktCbyHtQD9FBszKxyi-16" target="zvktCbyHtQD9FBszKxyi-21">
          <mxGeometry relative="1" as="geometry" />
        </mxCell>
        <mxCell id="zvktCbyHtQD9FBszKxyi-16" value="Mostra menu principal" style="html=1;dashed=0;whiteSpace=wrap;" vertex="1" parent="WIyWlLk6GJQsqaUBKTNV-1">
          <mxGeometry x="253" y="360" width="130" height="50" as="geometry" />
        </mxCell>
        <mxCell id="zvktCbyHtQD9FBszKxyi-18" style="edgeStyle=orthogonalEdgeStyle;rounded=0;orthogonalLoop=1;jettySize=auto;html=1;exitX=0.5;exitY=1;exitDx=0;exitDy=0;entryX=0.5;entryY=0;entryDx=0;entryDy=0;" edge="1" parent="WIyWlLk6GJQsqaUBKTNV-1" source="zvktCbyHtQD9FBszKxyi-5" target="zvktCbyHtQD9FBszKxyi-16">
          <mxGeometry relative="1" as="geometry" />
        </mxCell>
        <mxCell id="zvktCbyHtQD9FBszKxyi-24" style="edgeStyle=orthogonalEdgeStyle;rounded=0;orthogonalLoop=1;jettySize=auto;html=1;exitX=0.5;exitY=1;exitDx=0;exitDy=0;entryX=0.5;entryY=0;entryDx=0;entryDy=0;" edge="1" parent="WIyWlLk6GJQsqaUBKTNV-1" source="zvktCbyHtQD9FBszKxyi-21" target="zvktCbyHtQD9FBszKxyi-23">
          <mxGeometry relative="1" as="geometry" />
        </mxCell>
        <mxCell id="zvktCbyHtQD9FBszKxyi-21" value="Limpa periféricos" style="html=1;dashed=0;whiteSpace=wrap;" vertex="1" parent="WIyWlLk6GJQsqaUBKTNV-1">
          <mxGeometry x="253" y="440" width="130" height="50" as="geometry" />
        </mxCell>
        <mxCell id="zvktCbyHtQD9FBszKxyi-5" value="ON/OFF = 1" style="shape=rhombus;html=1;dashed=0;whiteSpace=wrap;perimeter=rhombusPerimeter;" vertex="1" parent="WIyWlLk6GJQsqaUBKTNV-1">
          <mxGeometry x="258" y="260" width="120" height="70" as="geometry" />
        </mxCell>
        <mxCell id="zvktCbyHtQD9FBszKxyi-9" value="Não" style="text;html=1;align=center;verticalAlign=middle;resizable=0;points=[];autosize=1;strokeColor=none;fillColor=none;" vertex="1" parent="WIyWlLk6GJQsqaUBKTNV-1">
          <mxGeometry x="218" y="270" width="50" height="30" as="geometry" />
        </mxCell>
        <mxCell id="zvktCbyHtQD9FBszKxyi-15" style="edgeStyle=orthogonalEdgeStyle;rounded=0;orthogonalLoop=1;jettySize=auto;html=1;exitX=0.5;exitY=1;exitDx=0;exitDy=0;entryX=0.5;entryY=0;entryDx=0;entryDy=0;" edge="1" parent="WIyWlLk6GJQsqaUBKTNV-1" source="zvktCbyHtQD9FBszKxyi-4" target="zvktCbyHtQD9FBszKxyi-5">
          <mxGeometry relative="1" as="geometry" />
        </mxCell>
        <mxCell id="zvktCbyHtQD9FBszKxyi-4" value="&lt;div&gt;Lê botão ON/OFF&lt;/div&gt;" style="html=1;dashed=0;whiteSpace=wrap;" vertex="1" parent="WIyWlLk6GJQsqaUBKTNV-1">
          <mxGeometry x="253" y="180" width="130" height="50" as="geometry" />
        </mxCell>
        <mxCell id="zvktCbyHtQD9FBszKxyi-19" value="Sim" style="text;html=1;align=center;verticalAlign=middle;resizable=0;points=[];autosize=1;strokeColor=none;fillColor=none;" vertex="1" parent="WIyWlLk6GJQsqaUBKTNV-1">
          <mxGeometry x="318" y="320" width="40" height="30" as="geometry" />
        </mxCell>
        <mxCell id="zvktCbyHtQD9FBszKxyi-26" style="edgeStyle=orthogonalEdgeStyle;rounded=0;orthogonalLoop=1;jettySize=auto;html=1;exitX=0.5;exitY=1;exitDx=0;exitDy=0;entryX=0.5;entryY=0;entryDx=0;entryDy=0;" edge="1" parent="WIyWlLk6GJQsqaUBKTNV-1" source="zvktCbyHtQD9FBszKxyi-23" target="zvktCbyHtQD9FBszKxyi-25">
          <mxGeometry relative="1" as="geometry" />
        </mxCell>
        <mxCell id="zvktCbyHtQD9FBszKxyi-23" value="Lê periférico de entrada" style="html=1;dashed=0;whiteSpace=wrap;" vertex="1" parent="WIyWlLk6GJQsqaUBKTNV-1">
          <mxGeometry x="253" y="519.5" width="130" height="50" as="geometry" />
        </mxCell>
        <mxCell id="zvktCbyHtQD9FBszKxyi-29" style="edgeStyle=orthogonalEdgeStyle;rounded=0;orthogonalLoop=1;jettySize=auto;html=1;exitX=0.5;exitY=1;exitDx=0;exitDy=0;" edge="1" parent="WIyWlLk6GJQsqaUBKTNV-1" source="zvktCbyHtQD9FBszKxyi-25" target="zvktCbyHtQD9FBszKxyi-27">
          <mxGeometry relative="1" as="geometry" />
        </mxCell>
        <mxCell id="zvktCbyHtQD9FBszKxyi-43" style="edgeStyle=orthogonalEdgeStyle;rounded=0;orthogonalLoop=1;jettySize=auto;html=1;exitX=1;exitY=0.5;exitDx=0;exitDy=0;" edge="1" parent="WIyWlLk6GJQsqaUBKTNV-1" source="zvktCbyHtQD9FBszKxyi-25" target="zvktCbyHtQD9FBszKxyi-38">
          <mxGeometry relative="1" as="geometry" />
        </mxCell>
        <mxCell id="zvktCbyHtQD9FBszKxyi-25" value="SEL_NR_MENU = 1" style="shape=rhombus;html=1;dashed=0;whiteSpace=wrap;perimeter=rhombusPerimeter;" vertex="1" parent="WIyWlLk6GJQsqaUBKTNV-1">
          <mxGeometry x="248" y="600" width="140" height="90" as="geometry" />
        </mxCell>
        <mxCell id="zvktCbyHtQD9FBszKxyi-30" style="edgeStyle=orthogonalEdgeStyle;rounded=0;orthogonalLoop=1;jettySize=auto;html=1;exitX=0.5;exitY=1;exitDx=0;exitDy=0;" edge="1" parent="WIyWlLk6GJQsqaUBKTNV-1" source="zvktCbyHtQD9FBszKxyi-27" target="zvktCbyHtQD9FBszKxyi-28">
          <mxGeometry relative="1" as="geometry" />
        </mxCell>
        <mxCell id="zvktCbyHtQD9FBszKxyi-42" style="edgeStyle=orthogonalEdgeStyle;rounded=0;orthogonalLoop=1;jettySize=auto;html=1;exitX=1;exitY=0.5;exitDx=0;exitDy=0;entryX=0;entryY=0.5;entryDx=0;entryDy=0;" edge="1" parent="WIyWlLk6GJQsqaUBKTNV-1" source="zvktCbyHtQD9FBszKxyi-27" target="zvktCbyHtQD9FBszKxyi-39">
          <mxGeometry relative="1" as="geometry" />
        </mxCell>
        <mxCell id="zvktCbyHtQD9FBszKxyi-27" value="SEL_NR_MENU = 2" style="shape=rhombus;html=1;dashed=0;whiteSpace=wrap;perimeter=rhombusPerimeter;" vertex="1" parent="WIyWlLk6GJQsqaUBKTNV-1">
          <mxGeometry x="248" y="720" width="140" height="90" as="geometry" />
        </mxCell>
        <mxCell id="zvktCbyHtQD9FBszKxyi-35" style="edgeStyle=orthogonalEdgeStyle;rounded=0;orthogonalLoop=1;jettySize=auto;html=1;exitX=0.5;exitY=1;exitDx=0;exitDy=0;entryX=0.5;entryY=0;entryDx=0;entryDy=0;" edge="1" parent="WIyWlLk6GJQsqaUBKTNV-1" source="zvktCbyHtQD9FBszKxyi-28" target="zvktCbyHtQD9FBszKxyi-34">
          <mxGeometry relative="1" as="geometry" />
        </mxCell>
        <mxCell id="zvktCbyHtQD9FBszKxyi-41" style="edgeStyle=orthogonalEdgeStyle;rounded=0;orthogonalLoop=1;jettySize=auto;html=1;exitX=1;exitY=0.5;exitDx=0;exitDy=0;entryX=0;entryY=0.5;entryDx=0;entryDy=0;" edge="1" parent="WIyWlLk6GJQsqaUBKTNV-1" source="zvktCbyHtQD9FBszKxyi-28" target="zvktCbyHtQD9FBszKxyi-40">
          <mxGeometry relative="1" as="geometry" />
        </mxCell>
        <mxCell id="zvktCbyHtQD9FBszKxyi-28" value="SEL_NR_MENU = 3" style="shape=rhombus;html=1;dashed=0;whiteSpace=wrap;perimeter=rhombusPerimeter;" vertex="1" parent="WIyWlLk6GJQsqaUBKTNV-1">
          <mxGeometry x="248" y="840" width="140" height="90" as="geometry" />
        </mxCell>
        <mxCell id="zvktCbyHtQD9FBszKxyi-31" value="Não" style="text;html=1;align=center;verticalAlign=middle;resizable=0;points=[];autosize=1;strokeColor=none;fillColor=none;" vertex="1" parent="WIyWlLk6GJQsqaUBKTNV-1">
          <mxGeometry x="278" y="680" width="50" height="30" as="geometry" />
        </mxCell>
        <mxCell id="zvktCbyHtQD9FBszKxyi-32" value="Não" style="text;html=1;align=center;verticalAlign=middle;resizable=0;points=[];autosize=1;strokeColor=none;fillColor=none;" vertex="1" parent="WIyWlLk6GJQsqaUBKTNV-1">
          <mxGeometry x="278" y="800" width="50" height="30" as="geometry" />
        </mxCell>
        <mxCell id="zvktCbyHtQD9FBszKxyi-49" style="edgeStyle=orthogonalEdgeStyle;rounded=0;orthogonalLoop=1;jettySize=auto;html=1;exitX=1;exitY=0.5;exitDx=0;exitDy=0;" edge="1" parent="WIyWlLk6GJQsqaUBKTNV-1" source="zvktCbyHtQD9FBszKxyi-53">
          <mxGeometry relative="1" as="geometry">
            <mxPoint x="618" y="880" as="targetPoint" />
          </mxGeometry>
        </mxCell>
        <mxCell id="zvktCbyHtQD9FBszKxyi-54" style="edgeStyle=orthogonalEdgeStyle;rounded=0;orthogonalLoop=1;jettySize=auto;html=1;exitX=0.5;exitY=1;exitDx=0;exitDy=0;entryX=0.5;entryY=0;entryDx=0;entryDy=0;" edge="1" parent="WIyWlLk6GJQsqaUBKTNV-1" source="zvktCbyHtQD9FBszKxyi-34" target="zvktCbyHtQD9FBszKxyi-53">
          <mxGeometry relative="1" as="geometry" />
        </mxCell>
        <mxCell id="zvktCbyHtQD9FBszKxyi-34" value="Erro" style="html=1;dashed=0;whiteSpace=wrap;" vertex="1" parent="WIyWlLk6GJQsqaUBKTNV-1">
          <mxGeometry x="253" y="960" width="130" height="50" as="geometry" />
        </mxCell>
        <mxCell id="zvktCbyHtQD9FBszKxyi-46" style="edgeStyle=orthogonalEdgeStyle;rounded=0;orthogonalLoop=1;jettySize=auto;html=1;exitX=1;exitY=0.5;exitDx=0;exitDy=0;entryX=1;entryY=0.5;entryDx=0;entryDy=0;" edge="1" parent="WIyWlLk6GJQsqaUBKTNV-1" source="zvktCbyHtQD9FBszKxyi-38" target="zvktCbyHtQD9FBszKxyi-4">
          <mxGeometry relative="1" as="geometry">
            <mxPoint x="618" y="200" as="targetPoint" />
            <Array as="points">
              <mxPoint x="618" y="645" />
              <mxPoint x="618" y="205" />
            </Array>
          </mxGeometry>
        </mxCell>
        <mxCell id="zvktCbyHtQD9FBszKxyi-38" value="Rotina Menu Balança" style="html=1;dashed=0;whiteSpace=wrap;" vertex="1" parent="WIyWlLk6GJQsqaUBKTNV-1">
          <mxGeometry x="438" y="620" width="130" height="50" as="geometry" />
        </mxCell>
        <mxCell id="zvktCbyHtQD9FBszKxyi-47" style="edgeStyle=orthogonalEdgeStyle;rounded=0;orthogonalLoop=1;jettySize=auto;html=1;exitX=1;exitY=0.5;exitDx=0;exitDy=0;" edge="1" parent="WIyWlLk6GJQsqaUBKTNV-1" source="zvktCbyHtQD9FBszKxyi-39">
          <mxGeometry relative="1" as="geometry">
            <mxPoint x="618" y="640" as="targetPoint" />
          </mxGeometry>
        </mxCell>
        <mxCell id="zvktCbyHtQD9FBszKxyi-39" value="Rotina Menu Registos" style="html=1;dashed=0;whiteSpace=wrap;" vertex="1" parent="WIyWlLk6GJQsqaUBKTNV-1">
          <mxGeometry x="438" y="740" width="130" height="50" as="geometry" />
        </mxCell>
        <mxCell id="zvktCbyHtQD9FBszKxyi-48" style="edgeStyle=orthogonalEdgeStyle;rounded=0;orthogonalLoop=1;jettySize=auto;html=1;exitX=1;exitY=0.5;exitDx=0;exitDy=0;" edge="1" parent="WIyWlLk6GJQsqaUBKTNV-1" source="zvktCbyHtQD9FBszKxyi-40">
          <mxGeometry relative="1" as="geometry">
            <mxPoint x="618" y="760" as="targetPoint" />
          </mxGeometry>
        </mxCell>
        <mxCell id="zvktCbyHtQD9FBszKxyi-40" value="Rotina Reset" style="html=1;dashed=0;whiteSpace=wrap;" vertex="1" parent="WIyWlLk6GJQsqaUBKTNV-1">
          <mxGeometry x="438" y="860" width="130" height="50" as="geometry" />
        </mxCell>
        <mxCell id="zvktCbyHtQD9FBszKxyi-50" value="Sim" style="text;html=1;align=center;verticalAlign=middle;resizable=0;points=[];autosize=1;strokeColor=none;fillColor=none;" vertex="1" parent="WIyWlLk6GJQsqaUBKTNV-1">
          <mxGeometry x="378" y="620" width="40" height="30" as="geometry" />
        </mxCell>
        <mxCell id="zvktCbyHtQD9FBszKxyi-51" value="Sim" style="text;html=1;align=center;verticalAlign=middle;resizable=0;points=[];autosize=1;strokeColor=none;fillColor=none;" vertex="1" parent="WIyWlLk6GJQsqaUBKTNV-1">
          <mxGeometry x="378" y="740" width="40" height="30" as="geometry" />
        </mxCell>
        <mxCell id="zvktCbyHtQD9FBszKxyi-52" value="Sim" style="text;html=1;align=center;verticalAlign=middle;resizable=0;points=[];autosize=1;strokeColor=none;fillColor=none;" vertex="1" parent="WIyWlLk6GJQsqaUBKTNV-1">
          <mxGeometry x="378" y="860" width="40" height="30" as="geometry" />
        </mxCell>
        <mxCell id="zvktCbyHtQD9FBszKxyi-57" style="edgeStyle=orthogonalEdgeStyle;rounded=0;orthogonalLoop=1;jettySize=auto;html=1;exitX=0;exitY=0.5;exitDx=0;exitDy=0;entryX=0;entryY=0.5;entryDx=0;entryDy=0;" edge="1" parent="WIyWlLk6GJQsqaUBKTNV-1" source="zvktCbyHtQD9FBszKxyi-53" target="zvktCbyHtQD9FBszKxyi-34">
          <mxGeometry relative="1" as="geometry">
            <Array as="points">
              <mxPoint x="208" y="1084" />
              <mxPoint x="208" y="985" />
            </Array>
          </mxGeometry>
        </mxCell>
        <mxCell id="zvktCbyHtQD9FBszKxyi-53" value="OK = 1" style="shape=rhombus;html=1;dashed=0;whiteSpace=wrap;perimeter=rhombusPerimeter;" vertex="1" parent="WIyWlLk6GJQsqaUBKTNV-1">
          <mxGeometry x="248" y="1039" width="140" height="90" as="geometry" />
        </mxCell>
        <mxCell id="zvktCbyHtQD9FBszKxyi-58" value="Sim" style="text;html=1;align=center;verticalAlign=middle;resizable=0;points=[];autosize=1;strokeColor=none;fillColor=none;" vertex="1" parent="WIyWlLk6GJQsqaUBKTNV-1">
          <mxGeometry x="378" y="1060" width="40" height="30" as="geometry" />
        </mxCell>
        <mxCell id="zvktCbyHtQD9FBszKxyi-59" value="Não" style="text;html=1;align=center;verticalAlign=middle;resizable=0;points=[];autosize=1;strokeColor=none;fillColor=none;" vertex="1" parent="WIyWlLk6GJQsqaUBKTNV-1">
          <mxGeometry x="278" y="920" width="50" height="30" as="geometry" />
        </mxCell>
        <mxCell id="zvktCbyHtQD9FBszKxyi-60" value="Não" style="text;html=1;align=center;verticalAlign=middle;resizable=0;points=[];autosize=1;strokeColor=none;fillColor=none;" vertex="1" parent="WIyWlLk6GJQsqaUBKTNV-1">
          <mxGeometry x="208" y="1060" width="50" height="30" as="geometry" />
        </mxCell>
      </root>
    </mxGraphModel>
  </diagram>
</mxfile>
